<?xml version="1.0" encoding="utf-8"?>
<!-- Generator: Adobe Illustrator 15.1.0, SVG Export Plug-In . SVG Version: 6.00 Build 0)  -->
<!DOCTYPE svg PUBLIC "-//W3C//DTD SVG 1.1//EN" "http://www.w3.org/Graphics/SVG/1.1/DTD/svg11.dtd">
<svg version="1.1" id="Layer_1" xmlns="http://www.w3.org/2000/svg" xmlns:xlink="http://www.w3.org/1999/xlink" x="0px" y="0px"
	 width="17px" height="62.886px" viewBox="0 0 17 62.886" enable-background="new 0 0 17 62.886" xml:space="preserve">
<g>
	<g>
		<path fill="#009DE0" d="M13.36,46.582c-3.699-1.577-5.554-2.356-9.26-3.895c0.019-0.702,0.028-1.054,0.044-1.756
			c3.779-1.346,5.668-2.028,9.44-3.414c-0.018,0.931-0.026,1.397-0.047,2.328c-0.845,0.275-1.267,0.412-2.112,0.686
			c-0.027,1.178-0.044,1.767-0.076,2.944c0.831,0.311,1.249,0.469,2.079,0.78C13.402,45.187,13.39,45.651,13.36,46.582z
			 M6.418,41.874c1.381,0.484,2.071,0.728,3.451,1.217c0.023-0.889,0.034-1.333,0.055-2.222C8.521,41.272,7.821,41.475,6.418,41.874
			z"/>
		<path fill="#009DE0" d="M4.245,36.025c1.734-0.779,2.601-1.171,4.333-1.959c-1.709-0.853-2.564-1.276-4.275-2.119
			c0.011-0.94,0.015-1.41,0.022-2.35c2.459,1.35,3.688,2.032,6.14,3.405c1.276,0.016,1.915,0.023,3.191,0.038
			c-0.011,0.877-0.017,1.316-0.03,2.193c-1.287-0.02-1.933-0.03-3.22-0.05c-2.479,1.287-3.719,1.926-6.204,3.19
			C4.22,37.435,4.229,36.965,4.245,36.025z"/>
		<path fill="#009DE0" d="M9.135,22.809c-1.916,0.003-2.875,0.005-4.791,0.008c-0.001-0.865-0.002-1.298-0.006-2.164
			c1.916-0.009,2.873-0.013,4.789-0.022c2.586-0.013,4.667,1.261,4.664,4.19c-0.003,3.035-2.219,4.196-4.672,4.179
			c-1.916-0.013-2.875-0.021-4.791-0.035c0.006-0.865,0.008-1.298,0.012-2.163c1.916,0.008,2.875,0.013,4.791,0.021
			c1.424,0.005,2.73-0.523,2.731-2.003C11.863,23.312,10.52,22.806,9.135,22.809z"/>
		<path fill="#009DE0" d="M13.693,18.928c-3.746,0.026-5.62,0.039-9.366,0.065c-0.01-1.399-0.016-2.098-0.033-3.498
			c-0.037-3.088,2.011-4.711,4.597-4.76c2.835-0.053,4.735,1.788,4.77,4.648C13.678,16.803,13.683,17.51,13.693,18.928z
			 M6.194,15.473c0.006,0.534,0.009,0.801,0.015,1.335c2.227-0.023,3.339-0.035,5.565-0.057c-0.006-0.538-0.01-0.806-0.017-1.344
			c-0.02-1.6-1.219-2.475-2.827-2.45C7.281,12.982,6.175,13.911,6.194,15.473z"/>
		<path fill="#009DE0" d="M13.585,10.626C9.812,9.237,7.923,8.549,4.144,7.2C4.127,6.498,4.119,6.146,4.101,5.444
			c3.706-1.535,5.56-2.309,9.26-3.88c0.029,0.93,0.042,1.396,0.068,2.326c-0.83,0.317-1.247,0.473-2.078,0.788
			c0.032,1.179,0.048,1.769,0.075,2.948c0.846,0.268,1.268,0.404,2.112,0.674C13.559,9.23,13.567,9.695,13.585,10.626z M6.418,6.27
			c1.403,0.416,2.104,0.625,3.507,1.046C9.904,6.426,9.894,5.981,9.87,5.092C8.489,5.565,7.799,5.8,6.418,6.27z"/>
	</g>
</g>
<path fill="#009DE0" d="M8.169,61.886c3.269,0,6.322-3.603,5.109-8.545c0.555-0.898,1.117-2.878,1.371-4.271
	c-1.035,0.521-2.454,1.097-3.442,1.067c-0.844-0.7-1.932-1.095-3.038-1.095c-3.123,0-5.408,3.028-5.408,6.421
	C2.761,58.834,5.027,61.886,8.169,61.886L8.169,61.886z M7.427,56.414v-1.626h3.67v1.626H7.427L7.427,56.414z M5.786,56.478
	c-0.483,0-0.875-0.393-0.875-0.877c0-0.483,0.393-0.876,0.875-0.876c0.484,0,0.877,0.393,0.877,0.876
	C6.664,56.085,6.271,56.478,5.786,56.478z"/>
</svg>
